<svg xmlns="http://www.w3.org/2000/svg" viewBox="0 0 1200 820"><rect width="1200" height="820" fill="#2b2020"/><style>text{font-family:serif;fill:#f6ead3;text-anchor:middle;font-size:22px}rect{fill:#6e2835;stroke:#d5ad66;stroke-width:3}</style><text x="600" y="36" font-size="30">西斯廷天顶结构 · 祭坛墙在上方</text><rect x="390" y="46" width="420" height="14" fill="#d5ad66"/><rect x="390" y="70" width="420" height="54" rx="8"/><text x="600" y="104">光与暗</text><rect x="390" y="142" width="420" height="54" rx="8"/><text x="600" y="176">日月</text><rect x="390" y="214" width="420" height="54" rx="8"/><text x="600" y="248">水与天</text><rect x="390" y="286" width="420" height="54" rx="8"/><text x="600" y="320">创造亚当</text><rect x="390" y="358" width="420" height="54" rx="8"/><text x="600" y="392">创造夏娃</text><rect x="390" y="430" width="420" height="54" rx="8"/><text x="600" y="464">原罪</text><rect x="390" y="502" width="420" height="54" rx="8"/><text x="600" y="536">挪亚献祭</text><rect x="390" y="574" width="420" height="54" rx="8"/><text x="600" y="608">大洪水</text><rect x="390" y="646" width="420" height="54" rx="8"/><text x="600" y="680">挪亚醉酒</text><rect x="95" y="85" width="220" height="610"/><text x="205" y="360">先知</text><text x="205" y="395">Prophets</text><rect x="885" y="85" width="220" height="610"/><text x="995" y="360">女先知</text><text x="995" y="395">Sibyls</text><text x="600" y="790">入口方向</text></svg>